# xmcd
#
# Track frame offsets:
#	150
#	16008
#	24798
#	37847
#	51560
#	62432
#	75808
#	85282
#	96692
#	115677
#	127915
#	139500
#	151768
#	163852
#	177206
#	189708
#	198498
#	211607
#	221989
#	234257
#	251854
#	260372
#	273726
#
# Disc length: 3830 seconds
#
# Revision: 0
# Processed by: cddbd v1.4PL0 Copyright (c) Steve Scherf et al.
# Submitted via: EasyCDDAExtractor 4.6.9.1
#
DISCID=320ef417
DTITLE=jerry&joanne
DYEAR=1900
DGENRE=
TTITLE0=Ailes d'argent
TTITLE1=On Est Fait L'un Pour L'Autre
TTITLE2=Amis
TTITLE3=Sharambi
TTITLE4=C'Est Notre Amour
TTITLE5=Chariter
TTITLE6=Diggy Diggy Lo
TTITLE7=Frappe Tes Mains
TTITLE8=Il Est Une Place
TTITLE9=Je T'aime Plus Fort
TTITLE10=L'Avenir
TTITLE11=Le Reve
TTITLE12=Le Train Clandestin
TTITLE13=L'Enfant A l'Hirondelle
TTITLE14=Mais Moi Je T'Aime
TTITLE15=On Est Fait L'Un Pour L'Autre
TTITLE16=OU Est Mon Chateau
TTITLE17=Quand Reviendras Tu Chez-Nous
TTITLE18=Le Reve
TTITLE19=Quand Tu Partiras
TTITLE20=Seul Avec Toi
TTITLE21=L'Enfant A L'Hirondelle
TTITLE22=Sharambi
EXTD=
EXTT0=
EXTT1=
EXTT2=
EXTT3=
EXTT4=
EXTT5=
EXTT6=
EXTT7=
EXTT8=
EXTT9=
EXTT10=
EXTT11=
EXTT12=
EXTT13=
EXTT14=
EXTT15=
EXTT16=
EXTT17=
EXTT18=
EXTT19=
EXTT20=
EXTT21=
EXTT22=
PLAYORDER=
